<svg xmlns="http://www.w3.org/2000/svg" viewBox="0 0 24 24" role="img" aria-label="사진">
  <style>
    /* 어두운 탭에서 검정은 사라진다. 눈에 보이는 쪽(밝은 탭)은 검정 그대로 두고,
       어두운 탭에서만 흰색으로 뒤집는다. */
    .s { fill: none; stroke: #0b0d10; stroke-width: 2; stroke-linecap: round; stroke-linejoin: round }
    @media (prefers-color-scheme: dark) { .s { stroke: #ffffff } }
  </style>
  <!-- 자동 생성 — tools/sync-favicons.mjs. 손으로 고치지 마세요.
       출처: lucide-static@1.47.0 (ISC) — lucide 의 'camera'. -->
  <g class="s"><path d="M13.997 4a2 2 0 0 1 1.76 1.05l.486.9A2 2 0 0 0 18.003 7H20a2 2 0 0 1 2 2v9a2 2 0 0 1-2 2H4a2 2 0 0 1-2-2V9a2 2 0 0 1 2-2h1.997a2 2 0 0 0 1.759-1.048l.489-.904A2 2 0 0 1 10.004 4z"/><circle cx="12" cy="13" r="3"/></g>
</svg>
